<?xml version="1.0" standalone="no"?>
<!DOCTYPE svg PUBLIC "-//W3C//DTD SVG 20010904//EN"
 "http://www.w3.org/TR/2001/REC-SVG-20010904/DTD/svg10.dtd">
<svg version="1.0" xmlns="http://www.w3.org/2000/svg"
 width="1280.000000pt" height="640.000000pt" viewBox="0 0 1280.000000 640.000000"
 preserveAspectRatio="xMidYMid meet">
<metadata>
Created by potrace 1.15, written by Peter Selinger 2001-2017
</metadata>
<g transform="translate(0.000000,640.000000) scale(0.100000,-0.100000)"
fill="#000000" stroke="none">
<path d="M5510 5597 c-130 -30 -229 -114 -404 -347 -123 -163 -206 -247 -381
-389 -518 -418 -959 -601 -1455 -601 -113 0 -198 5 -620 40 -214 18 -405 73
-789 227 -611 246 -783 278 -978 183 -136 -67 -248 -248 -279 -450 -35 -236
-78 -346 -286 -733 -178 -330 -251 -532 -295 -811 -22 -136 -24 -572 -4 -736
43 -357 124 -540 309 -702 107 -93 457 -306 592 -361 106 -43 200 -45 540 -13
640 59 887 69 1715 69 704 1 1061 -9 1655 -43 304 -18 923 -62 1060 -75 175
-17 702 -46 995 -55 471 -15 1660 6 2370 40 1644 80 2695 281 3155 604 175
123 288 293 357 536 109 389 -68 774 -450 975 -118 62 -216 89 -542 145 -1920
334 -3169 724 -4224 1320 -386 217 -1082 665 -1190 765 -137 126 -341 274
-463 336 -139 70 -285 99 -388 76z"/>
</g>
</svg>
